<?xml version="1.0" encoding="UTF-8"?>
<svg width="234px" height="70px" viewBox="0 0 234 70" version="1.1" xmlns="http://www.w3.org/2000/svg" xmlns:xlink="http://www.w3.org/1999/xlink">
    <!-- Generator: Sketch 57.1 (83088) - https://sketch.com -->
    <title>brainjocks2018-logo-white</title>
    <desc>Created with Sketch.</desc>
    <defs>
        <polygon id="path-1" points="0 69.8415625 233.140312 69.8415625 233.140312 0 0 0"></polygon>
    </defs>
    <g id="Brainjocks-2019" stroke="none" stroke-width="1" fill="none" fill-rule="evenodd">
        <g id="Home---Desktop" transform="translate(-145.000000, -35.000000)">
            <g id="Header">
                <g id="Header-Bar">
                    <g id="Logos/brainjocks-logo-header-2018" transform="translate(145.000000, 35.000000)">
                        <g id="brainjocks2018-logo-white">
                            <mask id="mask-2" fill="white">
                                <use xlink:href="#path-1"></use>
                            </mask>
                            <g id="Clip-10"></g>
                            <path d="M227.067469,33.9457187 C228.795906,33.9457187 233.140281,31.9100937 233.140281,27.1025937 C233.140281,24.5932187 231.888719,23.1079062 230.838719,22.3041562 C229.573719,21.3350937 228.033094,20.9016562 227.067469,20.9016562 C226.562156,20.9016562 225.599969,20.8938437 225.599969,20.8938437 L223.384344,20.8938437 C221.988406,20.8938437 220.975594,20.0429062 220.975594,18.8704062 C220.975594,17.4854062 222.058406,16.7610312 223.127781,16.7610312 L232.551844,16.7610312 L232.551844,12.2841562 L222.141531,12.2841562 C220.413406,12.2841562 216.069344,14.3197812 216.069344,19.1275937 C216.069344,21.6366562 217.320906,23.1219687 218.370594,23.9260312 C219.635906,24.8947812 221.176219,25.3285312 222.141531,25.3285312 C222.454969,25.3285312 223.731844,25.3316562 224.697781,25.3335312 L225.824656,25.3360312 C227.220594,25.3360312 228.233719,26.1872812 228.233719,27.3597812 C228.233719,28.7441562 227.151219,29.4688437 226.081844,29.4688437 L213.225906,29.4688437 C213.624656,30.7582187 213.849031,32.2444687 213.900281,33.9457187 L227.067469,33.9457187 Z" id="Fill-1" fill="#747678" mask="url(#mask-2)"></path>
                            <path d="M56.1354688,29.3576875 C52.6576563,29.3576875 49.8282813,26.5283125 49.8282813,23.0505 C49.8282813,19.7139375 52.7757812,16.7864375 56.1354688,16.7864375 C59.5542188,16.7864375 62.4426562,19.6551875 62.4426562,23.0505 C62.4426562,26.587375 59.6720313,29.3576875 56.1354688,29.3576875 M56.1354688,12.223625 C54.7717187,12.223625 53.3551563,12.544875 51.6779687,13.2351875 L49.9570312,13.9245625 L49.9570312,2.6283125 L45.1370312,2.6283125 L45.1370312,23.0505 C45.1370312,29.218 49.9682813,34.04925 56.1354688,34.04925 C62.3507812,34.04925 67.2195313,29.218 67.2195313,23.0505 C67.2195313,16.9795625 62.3507812,12.223625 56.1354688,12.223625" id="Fill-3" fill="#747678" mask="url(#mask-2)"></path>
                            <path d="M70.6642813,19.2810937 L70.6642813,34.0492188 L75.6124063,34.0492188 L75.6124063,18.5098438 C75.6124063,17.0332812 77.1786563,15.9298437 78.5786563,15.9298437 L81.0099063,15.9298437 L81.0099063,11.3670313 L77.6361562,11.3670313 C73.3295938,11.3670313 70.6642813,15.4748437 70.6642813,19.2810937" id="Fill-5" fill="#747678" mask="url(#mask-2)"></path>
                            <path d="M139.859844,39.3381562 L139.859844,43.9012812 L143.233594,43.9012812 C147.539844,43.9012812 150.205156,39.7931562 150.205156,35.9869062 L150.205156,11.9665937 L145.427969,11.9665937 L145.427969,35.9653437 C145.427969,37.9828438 144.167344,39.3381562 142.290781,39.3381562 L139.859844,39.3381562 Z" id="Fill-7" fill="#747678" mask="url(#mask-2)"></path>
                            <polygon id="Fill-9" fill="#747678" mask="url(#mask-2)" points="109.534688 34.0490625 114.354687 34.0490625 114.354687 11.9665625 109.534688 11.9665625"></polygon>
                            <polygon id="Fill-11" fill="#747678" mask="url(#mask-2)" points="109.534688 34.0490625 114.354687 34.0490625 114.354687 11.9665625 109.534688 11.9665625"></polygon>
                            <path d="M136.240156,34.0491562 L141.017656,34.0491562 L141.017656,22.5794687 C141.017656,16.4675937 136.045469,11.4954063 129.933594,11.4954063 C123.750781,11.4954063 118.720781,16.4675937 118.720781,22.5794687 L118.720781,34.0491562 L123.626094,34.0491562 L123.626094,22.5794687 C123.626094,19.1725937 126.455781,16.4007187 129.933594,16.4007187 C133.411094,16.4007187 136.240156,19.1725937 136.240156,22.5794687 L136.240156,34.0491562 Z" id="Fill-12" fill="#747678" mask="url(#mask-2)"></path>
                            <path d="M164.861063,29.1437812 C161.382938,29.1437812 158.55325,26.3140937 158.55325,22.8362812 C158.55325,19.3587812 161.382938,16.5294062 164.861063,16.5294062 C168.397313,16.5294062 171.167625,19.2997187 171.167625,22.8362812 C171.167625,26.3140937 168.338563,29.1437812 164.861063,29.1437812 M164.861063,11.7094063 C158.67825,11.7094063 153.647938,16.7009687 153.647938,22.8362812 C153.647938,29.0194063 158.67825,34.0490937 164.861063,34.0490937 C170.996375,34.0490937 175.987313,29.0194063 175.987313,22.8362812 C175.987313,16.5972187 171.100125,11.7094063 164.861063,11.7094063" id="Fill-13" fill="#747678" mask="url(#mask-2)"></path>
                            <path d="M189.178687,34.0491562 C192.044625,34.0491562 194.738062,33.0682187 196.68775,31.3363438 L193.609312,28.0975938 C192.3815,28.9869687 190.806813,29.4860313 189.178687,29.4860313 C185.63025,29.4860313 182.743063,26.6760312 182.743063,23.2219687 C182.743063,19.7679062 185.63025,16.9579063 189.178687,16.9579063 C190.749313,16.9579063 192.304937,17.4785313 193.549312,18.4044687 L196.811187,15.2385312 C194.772125,13.2866562 192.031188,12.1807188 189.178687,12.1807188 C183.114,12.1807188 178.18025,17.0763437 178.18025,23.0935312 C178.18025,29.1344688 183.114,34.0491562 189.178687,34.0491562" id="Fill-14" fill="#747678" mask="url(#mask-2)"></path>
                            <path d="M93.7853125,29.1437812 C90.3075,29.1437812 87.4778125,26.3140937 87.4778125,22.8362812 C87.4778125,19.3587812 90.3075,16.5294062 93.7853125,16.5294062 C97.3215625,16.5294062 100.091875,19.2997187 100.091875,22.8362812 C100.091875,26.3140937 97.2628125,29.1437812 93.7853125,29.1437812 M104.906563,22.9350313 C104.90875,22.9022188 104.911563,22.8697188 104.911563,22.8362812 C104.911563,16.5972187 100.024375,11.7094063 93.7853125,11.7094063 C87.6025,11.7094063 82.5725,16.7009687 82.5725,22.8362812 C82.5725,29.0194063 87.6025,34.0490937 93.7853125,34.0490937 C95.603125,34.0490937 97.3396875,33.6197188 98.9465625,32.7728437 L100.091875,32.1694063 L100.091875,34.0490937 L104.911563,34.0490937 L104.911563,23.8962812 L104.89375,23.8962812 L104.898125,23.0972188 C104.899063,23.0428438 104.902813,22.9890938 104.906563,22.9350313" id="Fill-15" fill="#747678" mask="url(#mask-2)"></path>
                            <path d="M147.817,3.1425 C146.43075,3.1425 145.38575,4.169375 145.38575,5.5309375 C145.38575,6.82625 146.521687,7.9625 147.817,7.9625 C149.089187,7.9625 150.205437,6.82625 150.205437,5.5309375 C150.205437,4.1915625 149.156062,3.1425 147.817,3.1425" id="Fill-16" fill="#747678" mask="url(#mask-2)"></path>
                            <path d="M112.075437,3.1425 C110.689188,3.1425 109.643875,4.169375 109.643875,5.5309375 C109.643875,6.82625 110.780125,7.9625 112.075437,7.9625 C113.347625,7.9625 114.463875,6.82625 114.463875,5.5309375 C114.463875,4.1915625 113.414812,3.1425 112.075437,3.1425" id="Fill-17" fill="#747678" mask="url(#mask-2)"></path>
                            <path d="M206.557187,23.0706875 C209.958125,20.6838125 212.19125,16.7413125 212.210625,12.284125 L207.44125,12.284125 C207.41125,16.7200625 203.955938,20.355375 199.593437,20.674125 L199.593437,20.6881875 L199.593437,25.4531875 L199.593437,25.46725 C203.955938,25.786 207.41125,29.4213125 207.44125,33.85725 L212.210625,33.85725 C212.19125,29.4000625 209.958125,25.4575625 206.557187,23.0706875" id="Fill-18" fill="#747678" mask="url(#mask-2)"></path>
                            <path d="M10.3875313,33.9979062 C10.3875313,31.7057187 12.2456562,29.8479062 14.5375313,29.8479062 C16.8297188,29.8479062 18.6878437,31.7057187 18.6878437,33.9979062 C18.6878437,36.2900937 16.8297188,38.1479062 14.5375313,38.1479062 C12.2456562,38.1479062 10.3875313,36.2900937 10.3875313,33.9979062" id="Fill-19" fill="#69BE28" mask="url(#mask-2)"></path>
                            <path d="M11.4250625,24.5639375 C11.4250625,22.844875 12.8185,21.4514375 14.5375625,21.4514375 C16.256625,21.4514375 17.650375,22.844875 17.650375,24.5639375 C17.650375,26.283 16.256625,27.6764375 14.5375625,27.6764375 C12.8185,27.6764375 11.4250625,26.283 11.4250625,24.5639375" id="Fill-20" fill="#69BE28" mask="url(#mask-2)"></path>
                            <path d="M12.2031875,16.9456875 C12.2031875,15.6563125 13.2485,14.6113125 14.5375625,14.6113125 C15.8269375,14.6113125 16.8719375,15.6563125 16.8719375,16.9456875 C16.8719375,18.2350625 15.8269375,19.2800625 14.5375625,19.2800625 C13.2485,19.2800625 12.2031875,18.2350625 12.2031875,16.9456875" id="Fill-21" fill="#BED600" mask="url(#mask-2)"></path>
                            <path d="M12.7868125,10.6891562 C12.7868125,9.72228125 13.5705625,8.93821875 14.53775,8.93821875 C15.504625,8.93821875 16.288375,9.72228125 16.288375,10.6891562 C16.288375,11.6560312 15.504625,12.4400938 14.53775,12.4400938 C13.5705625,12.4400938 12.7868125,11.6560312 12.7868125,10.6891562" id="Fill-22" fill="#BED600" mask="url(#mask-2)"></path>
                            <path d="M13.2245,5.4539375 C13.2245,4.728625 13.8123125,4.1408125 14.537625,4.1408125 C15.2629375,4.1408125 15.85075,4.728625 15.85075,5.4539375 C15.85075,6.17925 15.2629375,6.7670625 14.537625,6.7670625 C13.8123125,6.7670625 13.2245,6.17925 13.2245,5.4539375" id="Fill-23" fill="#DFDF00" mask="url(#mask-2)"></path>
                            <path d="M13.5527813,0.98471875 C13.5527813,0.44065625 13.9937188,3.125e-05 14.5374688,3.125e-05 C15.0815313,3.125e-05 15.5224687,0.44065625 15.5224687,0.98471875 C15.5224687,1.52878125 15.0815313,1.96940625 14.5374688,1.96940625 C13.9937188,1.96940625 13.5527813,1.52878125 13.5527813,0.98471875" id="Fill-24" fill="#DFDF00" mask="url(#mask-2)"></path>
                            <path d="M20.7750313,36.433125 C20.7750313,34.1409375 22.6331563,32.283125 24.9250313,32.283125 C27.2172188,32.283125 29.0753438,34.1409375 29.0753438,36.433125 C29.0753438,38.7253125 27.2172188,40.583125 24.9250313,40.583125 C22.6331563,40.583125 20.7750313,38.7253125 20.7750313,36.433125" id="Fill-25" fill="#00ADD0" mask="url(#mask-2)"></path>
                            <path d="M21.8125625,26.9991875 C21.8125625,25.280125 23.206,23.8866875 24.9250625,23.8866875 C26.644125,23.8866875 28.037875,25.280125 28.037875,26.9991875 C28.037875,28.71825 26.644125,30.1116875 24.9250625,30.1116875 C23.206,30.1116875 21.8125625,28.71825 21.8125625,26.9991875" id="Fill-26" fill="#00ADD0" mask="url(#mask-2)"></path>
                            <path d="M22.5907188,19.3809062 C22.5907188,18.0915312 23.6360313,17.0465312 24.9250938,17.0465312 C26.2144688,17.0465312 27.2594687,18.0915312 27.2594687,19.3809062 C27.2594687,20.6702812 26.2144688,21.7152812 24.9250938,21.7152812 C23.6360313,21.7152812 22.5907188,20.6702812 22.5907188,19.3809062" id="Fill-27" fill="#69D5EC" mask="url(#mask-2)"></path>
                            <path d="M23.1743437,13.124375 C23.1743437,12.1575 23.9580937,11.3734375 24.9252812,11.3734375 C25.8921562,11.3734375 26.6759062,12.1575 26.6759062,13.124375 C26.6759062,14.09125 25.8921562,14.8753125 24.9252812,14.8753125 C23.9580937,14.8753125 23.1743437,14.09125 23.1743437,13.124375" id="Fill-28" fill="#69D5EC" mask="url(#mask-2)"></path>
                            <path d="M23.6120313,7.88915625 C23.6120313,7.16384375 24.1998437,6.57603125 24.9251563,6.57603125 C25.6504688,6.57603125 26.2382812,7.16384375 26.2382812,7.88915625 C26.2382812,8.61446875 25.6504688,9.20228125 24.9251563,9.20228125 C24.1998437,9.20228125 23.6120313,8.61446875 23.6120313,7.88915625" id="Fill-29" fill="#69D5EC" mask="url(#mask-2)"></path>
                            <path d="M0,38.7675625 C0,36.475375 1.858125,34.6175625 4.15,34.6175625 C6.4421875,34.6175625 8.3003125,36.475375 8.3003125,38.7675625 C8.3003125,41.05975 6.4421875,42.9175625 4.15,42.9175625 C1.858125,42.9175625 0,41.05975 0,38.7675625" id="Fill-30" fill="#00ADD0" mask="url(#mask-2)"></path>
                            <path d="M1.03753125,29.333625 C1.03753125,27.6145625 2.43096875,26.221125 4.15003125,26.221125 C5.86909375,26.221125 7.26284375,27.6145625 7.26284375,29.333625 C7.26284375,31.0526875 5.86909375,32.446125 4.15003125,32.446125 C2.43096875,32.446125 1.03753125,31.0526875 1.03753125,29.333625" id="Fill-31" fill="#00ADD0" mask="url(#mask-2)"></path>
                            <path d="M1.8156875,21.7153437 C1.8156875,20.4259687 2.861,19.3809687 4.1500625,19.3809687 C5.4394375,19.3809687 6.4844375,20.4259687 6.4844375,21.7153437 C6.4844375,23.0047187 5.4394375,24.0497187 4.1500625,24.0497187 C2.861,24.0497187 1.8156875,23.0047187 1.8156875,21.7153437" id="Fill-32" fill="#69D5EC" mask="url(#mask-2)"></path>
                            <path d="M32.2216875,31.1979062 C32.2216875,29.4788437 33.615125,28.0854062 35.3341875,28.0854062 C37.05325,28.0854062 38.447,29.4788437 38.447,31.1979062 C38.447,32.9169688 37.05325,34.3104062 35.3341875,34.3104062 C33.615125,34.3104062 32.2216875,32.9169688 32.2216875,31.1979062" id="Fill-33" fill="#00ADD0" mask="url(#mask-2)"></path>
                            <path d="M32.9998125,23.5796562 C32.9998125,22.2902812 34.045125,21.2452812 35.3341875,21.2452812 C36.6235625,21.2452812 37.6685625,22.2902812 37.6685625,23.5796562 C37.6685625,24.8690312 36.6235625,25.9140312 35.3341875,25.9140312 C34.045125,25.9140312 32.9998125,24.8690312 32.9998125,23.5796562" id="Fill-34" fill="#69D5EC" mask="url(#mask-2)"></path>
                            <path d="M39.484375,40.631875 C39.484375,42.9240625 37.62625,44.781875 35.334375,44.781875 C33.0421875,44.781875 31.1840625,42.9240625 31.1840625,40.631875 C31.1840625,38.3396875 33.0421875,36.481875 35.334375,36.481875 C37.62625,36.481875 39.484375,38.3396875 39.484375,40.631875" id="Fill-35" fill="#00ADD0" mask="url(#mask-2)"></path>
                            <path d="M38.4468438,50.0658125 C38.4468438,51.784875 37.0534063,53.1783125 35.3343438,53.1783125 C33.6152813,53.1783125 32.2215312,51.784875 32.2215312,50.0658125 C32.2215312,48.34675 33.6152813,46.9533125 35.3343438,46.9533125 C37.0534063,46.9533125 38.4468438,48.34675 38.4468438,50.0658125" id="Fill-36" fill="#00ADD0" mask="url(#mask-2)"></path>
                            <path d="M49.859625,44.7819687 C49.859625,47.0741562 48.0015,48.9319687 45.709625,48.9319687 C43.4174375,48.9319687 41.5593125,47.0741562 41.5593125,44.7819687 C41.5593125,42.4897812 43.4174375,40.6319687 45.709625,40.6319687 C48.0015,40.6319687 49.859625,42.4897812 49.859625,44.7819687" id="Fill-37" fill="#00ADD0" mask="url(#mask-2)"></path>
                            <path d="M48.8220938,54.2159375 C48.8220938,55.935 47.4286563,57.3284375 45.7095938,57.3284375 C43.9905313,57.3284375 42.5967813,55.935 42.5967813,54.2159375 C42.5967813,52.496875 43.9905313,51.1034375 45.7095938,51.1034375 C47.4286563,51.1034375 48.8220938,52.496875 48.8220938,54.2159375" id="Fill-38" fill="#00ADD0" mask="url(#mask-2)"></path>
                            <path d="M48.0439688,61.8342187 C48.0439688,63.1235937 46.9986563,64.1685937 45.7095938,64.1685937 C44.4202188,64.1685937 43.3752188,63.1235937 43.3752188,61.8342187 C43.3752188,60.5448437 44.4202188,59.4998437 45.7095938,59.4998437 C46.9986563,59.4998437 48.0439688,60.5448437 48.0439688,61.8342187" id="Fill-39" fill="#69D5EC" mask="url(#mask-2)"></path>
                            <path d="M47.4603437,68.09075 C47.4603437,69.057625 46.6765937,69.8416875 45.7094062,69.8416875 C44.7425312,69.8416875 43.9587812,69.057625 43.9587812,68.09075 C43.9587812,67.123875 44.7425312,66.3398125 45.7094062,66.3398125 C46.6765937,66.3398125 47.4603437,67.123875 47.4603437,68.09075" id="Fill-40" fill="#69D5EC" mask="url(#mask-2)"></path>
                            <path d="M60.2551875,47.5833437 C60.2551875,49.8755312 58.3970625,51.7333437 56.1051875,51.7333437 C53.813,51.7333437 51.954875,49.8755312 51.954875,47.5833437 C51.954875,45.2911562 53.813,43.4333437 56.1051875,43.4333437 C58.3970625,43.4333437 60.2551875,45.2911562 60.2551875,47.5833437" id="Fill-41" fill="#00ADD0" mask="url(#mask-2)"></path>
                            <path d="M59.2176875,57.0172812 C59.2176875,58.7363438 57.82425,60.1297813 56.1051875,60.1297813 C54.386125,60.1297813 52.992375,58.7363438 52.992375,57.0172812 C52.992375,55.2982188 54.386125,53.9047812 56.1051875,53.9047812 C57.82425,53.9047812 59.2176875,55.2982188 59.2176875,57.0172812" id="Fill-42" fill="#00ADD0" mask="url(#mask-2)"></path>
                            <path d="M58.4395313,64.6355625 C58.4395313,65.9249375 57.3942188,66.9699375 56.1051563,66.9699375 C54.8157813,66.9699375 53.7707813,65.9249375 53.7707813,64.6355625 C53.7707813,63.3461875 54.8157813,62.3011875 56.1051563,62.3011875 C57.3942188,62.3011875 58.4395313,63.3461875 58.4395313,64.6355625" id="Fill-43" fill="#69D5EC" mask="url(#mask-2)"></path>
                            <path d="M70.6642813,44.1396875 C70.6642813,46.431875 68.8061563,48.2896875 66.5142813,48.2896875 C64.2220938,48.2896875 62.3639688,46.431875 62.3639688,44.1396875 C62.3639688,41.8475 64.2220938,39.9896875 66.5142813,39.9896875 C68.8061563,39.9896875 70.6642813,41.8475 70.6642813,44.1396875" id="Fill-44" fill="#00ADD0" mask="url(#mask-2)"></path>
                            <path d="M69.62675,53.5736562 C69.62675,55.2927187 68.2333125,56.6861562 66.51425,56.6861562 C64.7951875,56.6861562 63.4014375,55.2927187 63.4014375,53.5736562 C63.4014375,51.8545937 64.7951875,50.4611562 66.51425,50.4611562 C68.2333125,50.4611562 69.62675,51.8545937 69.62675,53.5736562" id="Fill-45" fill="#00ADD0" mask="url(#mask-2)"></path>
                        </g>
                    </g>
                </g>
            </g>
        </g>
    </g>
</svg>