<?xml version="1.0" encoding="UTF-8"?>
<svg width="140px" height="140px" viewBox="0 0 140 140" version="1.1" xmlns="http://www.w3.org/2000/svg" xmlns:xlink="http://www.w3.org/1999/xlink">
    <!-- Generator: Sketch 57.1 (83088) - https://sketch.com -->
    <title>Icon</title>
    <desc>Created with Sketch.</desc>
    <g id="Brainjocks-2019" stroke="none" stroke-width="1" fill="none" fill-rule="evenodd">
        <g id="Home---Desktop" transform="translate(-209.000000, -7408.000000)">
            <g id="Footer" transform="translate(0.000000, 7347.000000)">
                <g id="Icon" transform="translate(209.000000, 60.000000)">
                    <rect id="Rectangle" x="0" y="0" width="140" height="141"></rect>
                    <path d="M111.915345,60.5924653 C104.978438,60.5849466 99.3565613,54.9277065 99.3484669,47.9465382 C99.3484669,41.2567219 105.22127,35.3870769 111.915345,35.3870769 C118.794345,35.4547457 124.367656,41.0248935 124.482223,47.9465382 C124.556318,54.8562783 119.050253,60.5179043 112.184328,60.5924653 C112.094667,60.5937185 112.005006,60.5937185 111.915345,60.5924653 Z M111.915345,26.2386261 C108.850678,26.3144403 105.831464,27.0036599 103.033913,28.2668115 L99.6043747,29.6490102 L99.6043747,7 L90.0012949,7 L90.0012949,47.9465382 C89.8717844,59.9953505 99.4736188,69.868735 111.447115,69.9990602 C111.602776,70 111.759061,70 111.915345,69.9990602 C124.299165,69.9990602 134,60.3123915 134,47.9465382 C134,35.774293 124.299165,26.2386261 111.915345,26.2386261 L111.915345,26.2386261 Z" id="Fill-1" fill="#747678"></path>
                    <path d="M29,61 C33.4186747,61 37,64.5817929 37,68.9996988 C37,73.4182071 33.4186747,77 29,77 C24.5813253,77 21,73.4182071 21,68.9996988 C21,64.5817929 24.5813253,61 29,61" id="Fill-3" fill="#69BE28"></path>
                    <path d="M29,44 C32.3138554,44 35,46.6860097 35,49.9996988 C35,53.3133879 32.3138554,56 29,56 C25.6861446,56 23,53.3133879 23,49.9996988 C23,46.6860097 25.6861446,44 29,44" id="Fill-5" fill="#69BE28"></path>
                    <path d="M28.5,31 C30.9855422,31 33,33.0150602 33,35.5 C33,37.9855422 30.9855422,40 28.5,40 C26.0144578,40 24,37.9855422 24,35.5 C24,33.0150602 26.0144578,31 28.5,31" id="Fill-7" fill="#BED600"></path>
                    <path d="M28.5,19 C30.4327146,19 32,20.5668005 32,22.5003124 C32,24.4331995 30.4327146,26 28.5,26 C26.5672854,26 25,24.4331995 25,22.5003124 C25,20.5668005 26.5672854,19 28.5,19" id="Fill-9" fill="#BED600"></path>
                    <path d="M28.5,10 C29.8808901,10 31,11.1191099 31,12.5 C31,13.8808901 29.8808901,15 28.5,15 C27.1191099,15 26,13.8808901 26,12.5 C26,11.1191099 27.1191099,10 28.5,10" id="Fill-11" fill="#DFDF00"></path>
                    <path d="M28.0116571,1.28948571 C29.0065143,1.28948571 29.8122286,2.09577143 29.8122286,3.09005714 C29.8122286,4.08491429 29.0065143,4.8912 28.0116571,4.8912 C27.0168,4.8912 26.2110857,4.08491429 26.2110857,3.09005714 C26.2110857,2.09577143 27.0168,1.28948571 28.0116571,1.28948571" id="Fill-13" fill="#DFDF00"></path>
                    <path d="M49,66 C53.4186747,66 57,69.5817929 57,73.9996988 C57,78.4182071 53.4186747,82 49,82 C44.5813253,82 41,78.4182071 41,73.9996988 C41,69.5817929 44.5813253,66 49,66" id="Fill-16" fill="#00ADD0"></path>
                    <path d="M49,49 C52.3138554,49 55,51.6860097 55,54.9996988 C55,58.3133879 52.3138554,61 49,61 C45.6861446,61 43,58.3133879 43,54.9996988 C43,51.6860097 45.6861446,49 49,49" id="Fill-18" fill="#00ADD0"></path>
                    <path d="M49.5,36 C51.9855422,36 54,38.0150602 54,40.5 C54,42.9855422 51.9855422,45 49.5,45 C47.0144578,45 45,42.9855422 45,40.5 C45,38.0150602 47.0144578,36 49.5,36" id="Fill-20" fill="#69D5EC"></path>
                    <path d="M49.5,24 C51.4327146,24 53,25.5668005 53,27.5003124 C53,29.4331995 51.4327146,31 49.5,31 C47.5672854,31 46,29.4331995 46,27.5003124 C46,25.5668005 47.5672854,24 49.5,24" id="Fill-22" fill="#69D5EC"></path>
                    <path d="M49.5,15 C50.8808901,15 52,16.1191099 52,17.5 C52,18.8808901 50.8808901,20 49.5,20 C48.1191099,20 47,18.8808901 47,17.5 C47,16.1191099 48.1191099,15 49.5,15" id="Fill-24" fill="#69D5EC"></path>
                    <path d="M8,71 C12.4186747,71 16,74.5817929 16,78.9996988 C16,83.4182071 12.4186747,87 8,87 C3.5813253,87 0,83.4182071 0,78.9996988 C0,74.5817929 3.5813253,71 8,71" id="Fill-26" fill="#00ADD0"></path>
                    <path d="M8,54 C11.3138554,54 14,56.6860097 14,59.9996988 C14,63.3133879 11.3138554,66 8,66 C4.68614458,66 2,63.3133879 2,59.9996988 C2,56.6860097 4.68614458,54 8,54" id="Fill-28" fill="#00ADD0"></path>
                    <path d="M7.5,40 C9.98554217,40 12,42.0150602 12,44.5 C12,46.9855422 9.98554217,49 7.5,49 C5.01445783,49 3,46.9855422 3,44.5 C3,42.0150602 5.01445783,40 7.5,40" id="Fill-30" fill="#69D5EC"></path>
                    <path d="M70,58 C73.3138554,58 76,60.6860097 76,63.9996988 C76,67.3133879 73.3138554,70 70,70 C66.6861446,70 64,67.3133879 64,63.9996988 C64,60.6860097 66.6861446,58 70,58" id="Fill-32" fill="#00ADD0"></path>
                    <path d="M70.5,44 C72.9855422,44 75,46.0150602 75,48.5 C75,50.9855422 72.9855422,53 70.5,53 C68.0144578,53 66,50.9855422 66,48.5 C66,46.0150602 68.0144578,44 70.5,44" id="Fill-34" fill="#69D5EC"></path>
                    <path d="M70,74 C74.4186747,74 78,77.5817929 78,81.9996988 C78,86.4182071 74.4186747,90 70,90 C65.5813253,90 62,86.4182071 62,81.9996988 C62,77.5817929 65.5813253,74 70,74" id="Fill-36" fill="#00ADD0"></path>
                    <path d="M70,95 C73.3138554,95 76,97.6860097 76,100.999699 C76,104.313388 73.3138554,107 70,107 C66.6861446,107 64,104.313388 64,100.999699 C64,97.6860097 66.6861446,95 70,95" id="Fill-38" fill="#00ADD0"></path>
                    <path d="M91,83 C95.4186747,83 99,86.5817929 99,90.9996988 C99,95.4182071 95.4186747,99 91,99 C86.5813253,99 83,95.4182071 83,90.9996988 C83,86.5817929 86.5813253,83 91,83" id="Fill-40" fill="#00ADD0"></path>
                    <path d="M91,103 C94.3138554,103 97,105.68601 97,108.999699 C97,112.313388 94.3138554,115 91,115 C87.6861446,115 85,112.313388 85,108.999699 C85,105.68601 87.6861446,103 91,103" id="Fill-42" fill="#00ADD0"></path>
                    <path d="M90.5,120 C92.9855422,120 95,122.01506 95,124.5 C95,126.985542 92.9855422,129 90.5,129 C88.0144578,129 86,126.985542 86,124.5 C86,122.01506 88.0144578,120 90.5,120" id="Fill-44" fill="#69D5EC"></path>
                    <path d="M90.5,134 C92.4327146,134 94,135.566801 94,137.500312 C94,139.433199 92.4327146,141 90.5,141 C88.5672854,141 87,139.433199 87,137.500312 C87,135.566801 88.5672854,134 90.5,134" id="Fill-46" fill="#69D5EC"></path>
                    <path d="M111,88 C115.418675,88 119,91.5817929 119,95.9996988 C119,100.418207 115.418675,104 111,104 C106.581325,104 103,100.418207 103,95.9996988 C103,91.5817929 106.581325,88 111,88" id="Fill-48" fill="#00ADD0"></path>
                    <path d="M111,109 C114.313855,109 117,111.68601 117,114.999699 C117,118.313388 114.313855,121 111,121 C107.686145,121 105,118.313388 105,114.999699 C105,111.68601 107.686145,109 111,109" id="Fill-50" fill="#00ADD0"></path>
                    <path d="M111.5,126 C113.985542,126 116,128.01506 116,130.5 C116,132.985542 113.985542,135 111.5,135 C109.014458,135 107,132.985542 107,130.5 C107,128.01506 109.014458,126 111.5,126" id="Fill-52" fill="#69D5EC"></path>
                    <path d="M132,81 C136.418675,81 140,84.5817929 140,88.9996988 C140,93.4182071 136.418675,97 132,97 C127.581325,97 124,93.4182071 124,88.9996988 C124,84.5817929 127.581325,81 132,81" id="Fill-54" fill="#00ADD0"></path>
                    <path d="M132,102 C135.313855,102 138,104.68601 138,107.999699 C138,111.313388 135.313855,114 132,114 C128.686145,114 126,111.313388 126,107.999699 C126,104.68601 128.686145,102 132,102" id="Fill-56" fill="#00ADD0"></path>
                </g>
            </g>
        </g>
    </g>
</svg>