<?xml version="1.0" encoding="UTF-8"?>
<svg width="25px" height="25px" viewBox="0 0 25 25" version="1.1" xmlns="http://www.w3.org/2000/svg" xmlns:xlink="http://www.w3.org/1999/xlink">
    <!-- Generator: Sketch 57.1 (83088) - https://sketch.com -->
    <title>Close icon</title>
    <desc>Created with Sketch.</desc>
    <g id="Brainjocks-2019" stroke="none" stroke-width="1" fill="none" fill-rule="evenodd">
        <g id="About-Us---Desktop" transform="translate(-1334.000000, -4770.000000)" fill="#747678">
            <g id="Cookie-Disclaimer" transform="translate(0.000000, 4742.000000)">
                <g id="Close-icon" transform="translate(1334.000000, 28.000000)">
                    <path d="M23.7413043,25 C23.4888587,25 23.2361413,24.9024725 23.0434783,24.7076923 L0.560597826,1.97802198 C0.175,1.58873626 0.175,0.956318681 0.560597826,0.567032967 C0.946195652,0.177197802 1.57092391,0.177197802 1.95652174,0.567032967 L24.4394022,23.2967033 C24.825,23.685989 24.825,24.3184066 24.4394022,24.7076923 C24.2464674,24.9027473 23.99375,25 23.7413043,25 L23.7413043,25 Z" id="Shape"></path>
                    <path d="M1.25869565,25 C1.00625,25 0.753532609,24.9024725 0.560869565,24.7076923 C0.175271739,24.3184066 0.175271739,23.685989 0.560869565,23.2967033 L23.0434783,0.566758242 C23.4290761,0.176923077 24.0538043,0.176923077 24.4394022,0.566758242 C24.825,0.956043956 24.825,1.58846154 24.4394022,1.97774725 L1.95652174,24.7076923 C1.7638587,24.9027473 1.5111413,25 1.25869565,25 L1.25869565,25 Z" id="Shape"></path>
                </g>
            </g>
        </g>
    </g>
</svg>