<?xml version="1.0" encoding="UTF-8"?>
<svg width="40px" height="40px" viewBox="0 0 40 40" version="1.1" xmlns="http://www.w3.org/2000/svg" xmlns:xlink="http://www.w3.org/1999/xlink">
    <!-- Generator: Sketch 59.1 (86144) - https://sketch.com -->
    <title>facebook</title>
    <desc>Created with Sketch.</desc>
    <g id="Brainjocks-2019" stroke="none" stroke-width="1" fill="none" fill-rule="evenodd">
        <g id="Home---Desktop" transform="translate(-700.000000, -7414.000000)">
            <g id="Footer" transform="translate(-87.000000, 7347.000000)">
                <g id="follow-us" transform="translate(647.000000, 67.000000)">
                    <g id="facebook" transform="translate(140.000000, 0.000000)">
                        <path d="M20.00015,39.99975 C31.04565,39.99975 40.00015,31.04575 40.00015,19.99975 C40.00015,8.95425 31.04565,-0.00025 20.00015,-0.00025 C8.95415,-0.00025 0.00015,8.95425 0.00015,19.99975 C0.00015,31.04575 8.95415,39.99975 20.00015,39.99975 L20.00015,39.99975 Z" id="Path" fill="#EEEEEE"></path>
                        <path d="M15.9084833,18.02175 L18.3709833,18.02175 L18.3709833,16.48275 C18.3709833,14.27675 20.0274833,12.48175 22.0644833,12.48175 L24.5264833,12.48175 L24.5264833,15.53075 L22.0644833,15.53075 C21.7739833,15.53075 21.4484833,15.92575 21.4484833,16.45375 L21.4484833,18.02175 L24.5264833,18.02175 L24.5264833,21.08025 L21.4484833,21.08025 L21.4484833,28.48675 L18.3709833,28.48675 L18.3709833,21.08025 L15.9084833,21.08025 L15.9084833,18.02175 Z" id="Path" fill="#393A3E"></path>
                    </g>
                </g>
            </g>
        </g>
    </g>
</svg>