<?xml version="1.0" encoding="UTF-8"?>
<svg width="40px" height="40px" viewBox="0 0 40 40" version="1.1" xmlns="http://www.w3.org/2000/svg" xmlns:xlink="http://www.w3.org/1999/xlink">
    <!-- Generator: Sketch 59.1 (86144) - https://sketch.com -->
    <title>instagram</title>
    <desc>Created with Sketch.</desc>
    <g id="Brainjocks-2019" stroke="none" stroke-width="1" fill="none" fill-rule="evenodd">
        <g id="Home---Desktop" transform="translate(-840.000000, -7414.000000)">
            <g id="Footer" transform="translate(-87.000000, 7347.000000)">
                <g id="follow-us" transform="translate(647.000000, 67.000000)">
                    <g id="instagram" transform="translate(280.000000, 0.000000)">
                        <path d="M20.00025,4.99999996e-05 C8.95425,4.99999996e-05 0.00025,8.95405 0.00025,20.00005 C0.00025,31.04555 8.95425,40.00005 20.00025,40.00005 C31.04575,40.00005 40.00025,31.04555 40.00025,20.00005 C40.00025,8.95405 31.04575,4.99999996e-05 20.00025,4.99999996e-05" id="Path" fill="#EEEEEE"></path>
                        <path d="M25.65175,28.66255 C24.99775,28.90555 24.32075,29.03855 23.62075,29.03855 C21.20175,29.03305 18.78325,29.06205 16.35875,29.02705 C14.32775,28.99805 12.71875,28.14755 11.62525,26.40605 C11.19725,25.72305 10.97725,24.96505 10.97125,24.16055 C10.95975,21.39455 10.93675,18.62855 10.97725,15.85705 C11.00025,14.07505 11.90875,12.76155 13.38425,11.81805 C14.32775,11.21655 15.37475,10.96155 16.48575,10.96155 C18.87025,10.96155 21.24825,10.94455 23.63225,10.96755 C25.50725,10.99055 27.05225,11.73155 28.16875,13.26455 C28.73575,14.04605 29.03675,14.93105 29.03675,15.90905 L29.03675,19.99455 C29.03675,21.26755 29.00225,22.54055 29.04275,23.81355 C29.12375,26.07005 27.61325,27.93355 25.65175,28.66255" id="Path" fill="#393A3E"></path>
                        <path d="M23.5915,12.32145 C21.202,12.29845 18.812,12.30995 16.4225,12.31595 C15.89,12.31595 15.375,12.41995 14.8715,12.59945 C13.4015,13.13195 12.2445,14.49145 12.3025,16.26195 C12.343,17.50045 12.308,18.74445 12.308,19.98845 L12.308,24.01045 C12.308,24.53095 12.418,25.02295 12.661,25.48595 C13.4595,26.99045 14.773,27.66745 16.4165,27.69045 C18.766,27.72495 21.121,27.69645 23.47,27.70195 C24.101,27.70195 24.7145,27.59195 25.3045,27.36045 C26.7745,26.78195 27.7,25.44545 27.7,23.87145 L27.7,16.03645 C27.7,15.28995 27.492,14.61295 27.0405,14.01145 C26.1785,12.86545 24.998,12.33295 23.5915,12.32145" id="Path" fill="#EEEEEE"></path>
                        <path d="M24.749,16.06545 C24.263,16.05945 23.8755,15.65445 23.8755,15.14545 C23.8695,14.61895 24.263,14.20795 24.7605,14.20795 C25.2525,14.20795 25.669,14.63595 25.6635,15.13945 C25.6635,15.64895 25.241,16.07145 24.749,16.06545" id="Path" fill="#393A3E"></path>
                        <path d="M20.0275,23.87145 C17.672,23.87145 15.78,21.99645 15.78,19.66445 C15.78,17.34995 17.672,15.48695 20.0215,15.48695 C22.3765,15.48695 24.286,17.36745 24.2805119,19.68795 C24.2745,21.98495 22.359,23.87145 20.0275,23.87145" id="Path" fill="#393A3E"></path>
                        <path d="M20.0157,16.8292 C18.4362,16.8292 17.1167,18.1252 17.1167,19.6822 C17.1167,21.2442 18.4187,22.5117 20.0272,22.5117 C21.6417,22.5057 22.9207,21.2502 22.914721,19.6702 C22.9087,18.1022 21.6127,16.8292 20.0157,16.8292" id="Fill-1" fill="#EEEEEE"></path>
                    </g>
                </g>
            </g>
        </g>
    </g>
</svg>