<?xml version="1.0" encoding="UTF-8"?>
<svg width="40px" height="40px" viewBox="0 0 40 40" version="1.1" xmlns="http://www.w3.org/2000/svg" xmlns:xlink="http://www.w3.org/1999/xlink">
    <!-- Generator: Sketch 59.1 (86144) - https://sketch.com -->
    <title>linkedin</title>
    <desc>Created with Sketch.</desc>
    <g id="Brainjocks-2019" stroke="none" stroke-width="1" fill="none" fill-rule="evenodd">
        <g id="Home---Desktop" transform="translate(-630.000000, -7414.000000)">
            <g id="Footer" transform="translate(-87.000000, 7347.000000)">
                <g id="follow-us" transform="translate(647.000000, 67.000000)">
                    <g id="linkedin" transform="translate(70.000000, 0.000000)">
                        <path d="M19.99995,-4.99999996e-05 C8.95445,-4.99999996e-05 -4.99999996e-05,8.95445 -4.99999996e-05,19.99995 C-4.99999996e-05,31.04545 8.95445,39.99995 19.99995,39.99995 C31.04595,39.99995 39.99995,31.04545 39.99995,19.99995 C39.99995,8.95445 31.04595,-4.99999996e-05 19.99995,-4.99999996e-05 L19.99995,-4.99999996e-05 Z" id="Path" fill="#EEEEEE"></path>
                        <path d="M28.58895,27.38545 L25.19145,27.38545 L25.19145,21.91695 C25.19145,20.54345 24.69945,19.60595 23.46995,19.60595 C22.53095,19.60595 21.97195,20.23795 21.72595,20.84895 C21.63695,21.06745 21.61345,21.37145 21.61345,21.67745 L21.61345,27.38545 L18.21495,27.38545 C18.21495,27.38545 18.26095,18.12395 18.21495,17.16395 L21.61345,17.16395 L21.61345,18.61295 C22.06495,17.91745 22.87145,16.92395 24.67645,16.92395 C26.91295,16.92395 28.58895,18.38495 28.58895,21.52445 L28.58895,27.38545 Z M14.63695,15.76945 L14.61445,15.76945 C13.47445,15.76945 12.73595,14.98395 12.73595,14.00245 C12.73595,12.99945 13.49645,12.23695 14.65945,12.23695 C15.82195,12.23695 16.53695,12.99945 16.55945,14.00245 C16.55945,14.98395 15.82195,15.76945 14.63695,15.76945 L14.63695,15.76945 Z M12.93795,27.38545 L16.33545,27.38545 L16.33545,17.16395 L12.93795,17.16395 L12.93795,27.38545 Z" id="Fill-3" fill="#393A3E"></path>
                    </g>
                </g>
            </g>
        </g>
    </g>
</svg>