<?xml version="1.0" encoding="UTF-8"?>
<svg width="40px" height="40px" viewBox="0 0 40 40" version="1.1" xmlns="http://www.w3.org/2000/svg" xmlns:xlink="http://www.w3.org/1999/xlink">
    <!-- Generator: Sketch 59.1 (86144) - https://sketch.com -->
    <title>twitter</title>
    <desc>Created with Sketch.</desc>
    <g id="Brainjocks-2019" stroke="none" stroke-width="1" fill="none" fill-rule="evenodd">
        <g id="Home---Desktop" transform="translate(-560.000000, -7414.000000)">
            <g id="Footer" transform="translate(-87.000000, 7347.000000)">
                <g id="follow-us" transform="translate(647.000000, 67.000000)">
                    <g id="twitter">
                        <path d="M19.99995,-4.99999996e-05 C8.95445,-4.99999996e-05 -4.99999996e-05,8.95445 -4.99999996e-05,19.99995 C-4.99999996e-05,31.04545 8.95445,39.99995 19.99995,39.99995 C31.04595,39.99995 39.99995,31.04545 39.99995,19.99995 C39.99995,8.95445 31.04595,-4.99999996e-05 19.99995,-4.99999996e-05" id="Path" fill="#EEEEEE"></path>
                        <path d="M26.56045,17.31645 C26.56695,17.46145 26.57045,17.60745 26.57045,17.75445 C26.57045,22.22745 23.16545,27.38545 16.93945,27.38545 C15.02795,27.38545 13.24845,26.82495 11.75045,25.86445 C12.01545,25.89595 12.28495,25.91195 12.55795,25.91195 C14.14395,25.91195 15.60345,25.37095 16.76195,24.46295 C15.28045,24.43545 14.03045,23.45695 13.59995,22.11195 C13.80645,22.15145 14.01845,22.17295 14.23645,22.17295 C14.54545,22.17295 14.84445,22.13145 15.12845,22.05395 C13.57995,21.74295 12.41295,20.37495 12.41295,18.73495 C12.41295,18.72045 12.41295,18.70645 12.41345,18.69245 C12.86995,18.94595 13.39195,19.09795 13.94645,19.11595 C13.03845,18.50895 12.44095,17.47295 12.44095,16.29845 C12.44095,15.67795 12.60795,15.09645 12.89895,14.59645 C14.56845,16.64445 17.06295,17.99195 19.87595,18.13345 C19.81845,17.88545 19.78845,17.62695 19.78845,17.36195 C19.78845,15.49245 21.30395,13.97695 23.17345,13.97695 C24.14695,13.97695 25.02695,14.38795 25.64395,15.04595 C26.41495,14.89395 27.13945,14.61245 27.79345,14.22445 C27.54095,15.01495 27.00395,15.67845 26.30545,16.09745 C26.98995,16.01545 27.64245,15.83345 28.24945,15.56445 C27.79595,16.24295 27.22195,16.83945 26.56045,17.31645" id="Path" fill="#393A3E"></path>
                    </g>
                </g>
            </g>
        </g>
    </g>
</svg>