<?xml version="1.0" encoding="UTF-8"?>
<svg width="40px" height="40px" viewBox="0 0 40 40" version="1.1" xmlns="http://www.w3.org/2000/svg" xmlns:xlink="http://www.w3.org/1999/xlink">
    <!-- Generator: Sketch 59.1 (86144) - https://sketch.com -->
    <title>youtube</title>
    <desc>Created with Sketch.</desc>
    <g id="Brainjocks-2019" stroke="none" stroke-width="1" fill="none" fill-rule="evenodd">
        <g id="Home---Desktop" transform="translate(-770.000000, -7414.000000)">
            <g id="Footer" transform="translate(-87.000000, 7347.000000)">
                <g id="follow-us" transform="translate(647.000000, 67.000000)">
                    <g id="youtube" transform="translate(210.000000, 0.000000)">
                        <path d="M-0.00025,19.9998 C-0.00025,31.0458 8.95425,39.9998 19.99975,39.9998 C31.04575,39.9998 39.99975,31.0458 39.99975,19.9998 C39.99975,8.9543 31.04575,-0.0002 19.99975,-0.0002 C8.95425,-0.0002 -0.00025,8.9543 -0.00025,19.9998 Z" id="Path" fill="#EEEEEE"></path>
                        <path d="M27.83975,23.1883 C27.71825,24.3828 26.85425,25.2853 25.65675,25.3713 C22.46025,25.5998 18.62625,25.6273 13.89375,25.3713 C12.69525,25.3063 11.83675,24.3823 11.71075,23.1883 C11.46925,20.8943 11.46725,18.6003 11.71075,16.3063 C11.83775,15.1123 12.69575,14.1988 13.89375,14.1233 C17.81475,13.8773 21.73575,13.8848 25.65675,14.1233 C26.85525,14.1963 27.70825,15.1128 27.83975,16.3063 C28.08775,18.5588 28.07675,20.8548 27.83975,23.1883" id="Path" fill="#393A3E"></path>
                        <polygon id="Fill-1" fill="#EEEEEE" points="18.07755 21.9756 22.47355 19.7016 18.07755 17.3976"></polygon>
                    </g>
                </g>
            </g>
        </g>
    </g>
</svg>